<?xml version="1.0" ?><svg id="Icons" viewBox="0 0 60 60" fill="#fff" xmlns="http://www.w3.org/2000/svg"><path d="M53.161.911a3.162,3.162,0,0,0-4.381,0,3.049,3.049,0,0,0-.58,3.541l-7.611,7.612-6-6a1.99,1.99,0,0,0-1.414-.585h0a1.986,1.986,0,0,0-1.412.585L30.21,7.614a2,2,0,0,0,0,2.829L32.5,12.736l-3,3h0l-11.12,11.12h0l0,0-3.7,3.7h0l0,0-1.652,1.653a5.989,5.989,0,0,0-.5,7.912l-.174.175a4,4,0,0,0,0,5.657l.137.138L.293,58.293a1,1,0,1,0,1.414,1.414L13.9,47.517l.137.136a4,4,0,0,0,5.657,0l.175-.174a5.989,5.989,0,0,0,7.912-.5L47.262,27.5l2.293,2.293a2,2,0,0,0,2.828,0l1.552-1.552a2,2,0,0,0,0-2.828l-6-6,7.61-7.61a3.089,3.089,0,0,0,3.542-4.963ZM18.277,46.239a2.048,2.048,0,0,1-2.829,0L13.76,44.551a2,2,0,0,1,0-2.829l.137-.137L18.414,46.1Zm8.087-.673a4.1,4.1,0,0,1-5.657,0l-.171-.17L14.6,39.464l-.171-.172a4,4,0,0,1,0-5.657l.947-.948,2.259,2.259a1,1,0,0,0,1.414-1.414l-2.259-2.259,2.293-2.293,2.259,2.258a1,1,0,0,0,1.414-1.414L20.5,27.566l2.19-2.19c.2.2.38.412.569.63a7.694,7.694,0,0,0,8.8,2.44,5.709,5.709,0,0,1,6.673,1.847A9.8,9.8,0,0,0,40.2,31.73ZM45.848,26.083l-4.224,4.224a6.843,6.843,0,0,1-1.376-1.321,7.694,7.694,0,0,0-8.809-2.441A5.714,5.714,0,0,1,24.771,24.7c-.21-.243-.425-.49-.664-.736L26.5,21.565l2.258,2.259a1,1,0,0,0,1.414-1.414l-2.258-2.259,2.293-2.293,2.259,2.258A1,1,0,0,0,33.882,18.7l-2.259-2.259,2.293-2.292,5.966,5.966Zm5.122,2.294h0L41.3,18.7l-6.673-6.674h0l-3-3,1.552-1.551L52.521,26.824ZM46.521,18l-1.552-1.552,5.224-5.224a1,1,0,1,0-1.414-1.414l-5.224,5.224L42,13.478l7.483-7.484L54,10.512ZM57.676,9.8l0,0a1.1,1.1,0,0,1-1.543,0L50.194,3.867a1.089,1.089,0,0,1,0-1.541,1.09,1.09,0,0,1,1.554,0l5.929,5.929a1.084,1.084,0,0,1,0,1.546Z"/></svg>